<?xml version="1.0" standalone="no"?>
<!DOCTYPE svg PUBLIC "-//W3C//DTD SVG 20010904//EN"
 "http://www.w3.org/TR/2001/REC-SVG-20010904/DTD/svg10.dtd">
<svg version="1.0" xmlns="http://www.w3.org/2000/svg"
 width="485.000000pt" height="515.000000pt" viewBox="0 0 485.000000 515.000000"
 preserveAspectRatio="xMidYMid meet">

<g transform="translate(0.000000,515.000000) scale(0.100000,-0.100000)"
fill="#000000" stroke="none">
<path d="M3060 4997 c0 -2 13 -39 29 -83 16 -43 61 -164 99 -269 39 -104 84
-226 101 -270 17 -44 31 -86 31 -94 0 -9 -28 15 -63 52 l-62 67 -75 0 c-41 0
-82 -5 -90 -10 -11 -7 -2 -10 33 -10 65 0 109 -22 162 -84 89 -101 162 -300
135 -366 -13 -30 -73 -90 -90 -90 -6 0 -31 43 -56 95 -26 52 -48 95 -50 95 -5
0 12 -43 34 -87 32 -62 81 -214 98 -304 23 -120 16 -305 -15 -374 -34 -77 -97
-135 -181 -164 -121 -43 -587 -57 -870 -26 -190 20 -304 70 -412 179 -132 134
-153 395 -55 681 30 85 104 237 148 302 18 26 26 42 17 35 -29 -24 -112 -156
-166 -267 -30 -60 -58 -115 -63 -121 -6 -8 -20 -1 -43 20 -44 42 -56 67 -56
115 0 98 120 326 215 410 47 41 79 48 131 28 37 -13 42 -14 37 -1 -8 20 -56
44 -91 44 -32 0 -104 -43 -143 -86 -100 -110 -190 -283 -197 -375 -6 -81 24
-142 84 -172 24 -11 44 -24 44 -27 0 -4 -11 -44 -25 -91 -37 -122 -52 -253
-38 -333 12 -72 50 -162 90 -214 99 -130 365 -178 973 -176 270 1 371 15 484
69 156 74 204 267 142 575 -13 69 -22 126 -18 128 38 15 91 54 109 81 43 64
25 184 -62 431 -187 525 -250 690 -266 690 -5 0 -9 -2 -9 -3z"/>
<path d="M2455 4660 c-13 -5 19 -8 85 -7 64 0 93 3 75 8 -42 10 -136 9 -160
-1z"/>
<path d="M2702 4627 c138 -59 194 -112 273 -258 48 -91 61 -97 19 -8 -72 148
-197 262 -314 283 -27 5 -22 2 22 -17z"/>
<path d="M2025 4408 c-20 -24 -41 -52 -46 -63 -10 -19 3 -6 68 68 14 16 23 31
20 33 -3 3 -21 -14 -42 -38z"/>
<path d="M2245 4264 c-44 -8 -120 -27 -168 -41 -105 -31 -135 -61 -197 -188
-51 -106 -56 -123 -34 -132 10 -3 93 4 186 17 147 20 193 22 361 17 106 -3
208 -8 227 -11 19 -3 76 -10 125 -16 50 -6 134 -23 188 -37 54 -14 101 -22
105 -19 12 13 -27 132 -79 239 -59 121 -73 133 -191 163 -92 23 -417 28 -523
8z"/>
<path d="M3101 4140 c14 -31 19 -36 19 -24 0 6 -7 19 -16 30 -14 18 -14 18 -3
-6z"/>
<path d="M3379 3771 c8 -5 51 -12 95 -16 164 -14 224 -41 331 -150 81 -83 129
-157 187 -290 91 -211 308 -764 357 -913 22 -64 62 -182 90 -261 84 -237 106
-331 105 -446 -1 -160 -51 -270 -184 -405 -148 -149 -344 -265 -505 -300 -55
-11 -167 -37 -250 -57 -137 -33 -158 -35 -250 -30 -129 7 -199 32 -260 94
-108 108 -123 245 -35 333 93 93 207 124 445 122 159 -1 245 8 245 27 0 4 -28
13 -62 19 -34 6 -65 15 -69 19 -9 9 24 124 106 384 24 75 53 179 65 230 12 52
29 114 37 138 29 82 28 83 -552 101 -880 27 -1777 23 -1990 -11 -33 -5 -123
-12 -200 -16 -150 -6 -185 -14 -185 -38 0 -8 27 -81 61 -162 34 -82 67 -165
75 -185 11 -31 74 -176 119 -273 71 -155 71 -165 8 -166 -27 -1 28 -7 121 -14
204 -15 270 -28 361 -70 113 -51 155 -114 140 -213 -5 -37 -17 -56 -61 -102
-103 -108 -214 -145 -417 -138 -98 4 -139 10 -204 32 -244 80 -514 386 -579
656 -23 96 -23 314 -1 415 39 175 88 275 325 657 395 636 504 789 663 928 43
39 76 70 72 70 -27 0 -123 -71 -193 -142 -186 -187 -612 -760 -762 -1023 -80
-141 -150 -309 -190 -456 -32 -120 -32 -366 0 -484 27 -98 74 -197 136 -289
26 -39 44 -76 42 -83 -3 -7 -18 -13 -33 -13 -50 0 -151 -57 -220 -122 -123
-118 -209 -297 -220 -458 -13 -185 77 -359 224 -433 160 -80 441 -112 1208
-137 528 -17 965 -14 1080 8 119 22 436 42 980 62 581 20 785 61 923 185 65
58 104 121 138 220 23 67 28 97 28 185 1 124 -7 151 -82 280 -60 101 -95 140
-154 171 -67 34 -62 20 21 -67 53 -54 92 -106 109 -142 25 -52 27 -67 26 -177
-1 -96 -5 -132 -23 -180 -42 -118 -123 -205 -247 -268 -124 -63 -466 -124
-794 -142 -318 -17 -489 -29 -927 -65 -104 -8 -296 2 -365 21 -40 10 -84 56
-95 97 -8 35 11 104 49 172 43 76 206 235 317 308 117 77 348 192 398 199 35
5 44 1 89 -38 27 -23 74 -54 104 -68 52 -25 63 -26 220 -25 120 0 184 5 235
17 246 61 495 180 681 327 42 33 83 60 90 60 8 0 14 5 14 11 0 6 27 48 61 95
33 46 75 118 92 161 28 71 31 88 30 188 0 81 -6 133 -22 195 -34 131 -205 633
-291 855 -43 110 -94 241 -113 290 -146 374 -240 540 -360 636 -73 58 -120 79
-206 95 -87 15 -224 19 -202 5z m-19 -1490 c179 -13 342 -31 353 -38 19 -12
-21 -23 -84 -23 -36 0 -160 8 -275 17 -182 16 -345 18 -1242 18 -567 0 -1032
3 -1032 6 0 14 92 19 435 25 198 4 362 8 365 11 10 9 1341 -5 1480 -16z m-759
-626 c71 -137 129 -256 129 -262 0 -9 -20 -13 -65 -13 l-65 0 -25 50 -25 50
-153 0 -152 0 -28 -50 -28 -50 -65 0 c-38 0 -64 4 -64 11 0 13 266 477 288
502 12 14 28 17 70 15 l55 -3 128 -250z m-1827 -530 c185 -157 264 -182 606
-197 226 -10 253 -13 345 -40 133 -40 237 -84 368 -156 l108 -59 -36 -39 c-45
-47 -80 -115 -100 -191 -20 -77 -19 -139 5 -215 11 -34 20 -67 20 -72 0 -19
-1083 18 -1299 45 -341 41 -481 112 -564 282 -114 233 -1 539 233 633 41 17
98 40 125 51 85 35 103 31 189 -42z m2196 -136 c0 -6 -4 -7 -10 -4 -5 3 -10
11 -10 16 0 6 5 7 10 4 6 -3 10 -11 10 -16z m-170 -26 c0 -5 -25 -16 -55 -26
-101 -33 -291 -117 -366 -162 l-74 -44 -25 29 c-14 15 -34 43 -45 62 -11 18
-46 48 -77 67 -32 18 -55 37 -52 42 3 5 65 9 137 10 73 0 182 7 242 13 126 15
315 20 315 9z"/>
<path d="M2353 1676 c-29 -52 -53 -99 -53 -105 0 -7 35 -11 100 -11 67 0 100
4 100 11 0 11 -88 199 -93 199 -1 0 -26 -42 -54 -94z"/>
<path d="M2723 3528 c20 -12 36 -27 34 -32 -5 -16 -103 -72 -202 -115 -110
-49 -219 -65 -345 -52 -47 5 -86 8 -88 6 -1 -1 21 -10 50 -19 226 -70 538 -33
640 76 l30 33 28 -33 c33 -40 47 -28 26 21 -14 35 -65 76 -143 116 -55 28 -79
27 -30 -1z"/>
</g>
</svg>
